<?xml version="1.0" encoding="UTF-8" standalone="no"?>
<!DOCTYPE svg PUBLIC "-//W3C//DTD SVG 20010904//EN" "http://www.w3.org/TR/2001/REC-SVG-20010904/DTD/svg10.dtd">
<svg version="1.0" xmlns="http://www.w3.org/2000/svg" width="128.000000pt" height="128.000000pt" viewBox="0 0 128.000000 128.000000" preserveAspectRatio="xMidYMid meet">

<g transform="translate(0.000000,128.000000) scale(0.100000,-0.100000)" fill="#000000" stroke="none">
<path d="M575 1274 c-11 -2 -45 -9 -75 -15 -216 -42 -418 -239 -475 -464 -19 -76 -19 -234 0 -310 55 -218 237 -402 455 -461 103 -28 254 -24 357 10 276 90 456 353 440 642 -18 323 -276 581 -599 598 -46 3 -92 3 -103 0z m-70 -290 c219 -52 417 -239 484 -457 11 -37 23 -97 27 -132 l7 -65 -66 0 c-72 0 -77 4 -77 68 0 49 -41 161 -80 222 -43 66 -132 148 -206 187 -63 34 -165 63 -221 63 l-33 0 0 63 c0 35 3 67 6 70 8 8 82 -1 159 -19z m-28 -232 c147 -46 258 -164 298 -317 26 -103 25 -105 -49 -105 -70 0 -67 -3 -81 70 -23 113 -140 220 -260 237 l-45 6 0 63 0 64 39 0 c22 0 65 -8 98 -18z m18 -266 c35 -35 41 -69 18 -108 -48 -82 -163 -51 -163 42 0 80 91 120 145 66z"/>
</g>
</svg>