
        <svg id="tree" width="900" height="600" title="test2" version="1.1" xmlns="http://www.w3.org/2000/svg">
            <style>
                .node circle {
                    fill: #fff;
                    stroke: steelblue;
                    stroke-width: 3px;
                }

                .node text {
                    font: 12px sans-serif;
                }

                .link {
                    fill: none;
                    stroke: #ccc;
                    stroke-width: 2px;
                }

                circle:hover {
                    transform: scale(1.1, 1.1);
                }

                circle.match {
                    stroke: orange;
                }

                circle.match[data-goal-path="true"] {
                    fill: orange;
                }

                circle.predict[data-goal-path="true"] {
                    fill: steelblue;
                }
            </style>

        <g transform="translate(10,40)"><path class="link" d="M404.51612903225805,40C404.51612903225805,20 432.9032258064516,20 432.9032258064516,0"></path><path class="link" d="M461.2903225806452,40C461.2903225806452,20 432.9032258064516,20 432.9032258064516,0"></path><path class="link" d="M404.51612903225805,80C404.51612903225805,60 404.51612903225805,60 404.51612903225805,40"></path><path class="link" d="M347.741935483871,120C347.741935483871,100 404.51612903225805,100 404.51612903225805,80"></path><path class="link" d="M404.51612903225805,120C404.51612903225805,100 404.51612903225805,100 404.51612903225805,80"></path><path class="link" d="M461.2903225806452,120C461.2903225806452,100 404.51612903225805,100 404.51612903225805,80"></path><path class="link" d="M347.741935483871,160C347.741935483871,140 347.741935483871,140 347.741935483871,120"></path><path class="link" d="M85.16129032258064,200C85.16129032258064,180 347.741935483871,180 347.741935483871,160"></path><path class="link" d="M141.93548387096774,200C141.93548387096774,180 347.741935483871,180 347.741935483871,160"></path><path class="link" d="M610.3225806451613,200C610.3225806451613,180 347.741935483871,180 347.741935483871,160"></path><path class="link" d="M141.93548387096774,240C141.93548387096774,220 141.93548387096774,220 141.93548387096774,200"></path><path class="link" d="M610.3225806451613,240C610.3225806451613,220 610.3225806451613,220 610.3225806451613,200"></path><path class="link" d="M56.774193548387096,280C56.774193548387096,260 141.93548387096774,260 141.93548387096774,240"></path><path class="link" d="M113.54838709677419,280C113.54838709677419,260 141.93548387096774,260 141.93548387096774,240"></path><path class="link" d="M227.09677419354838,280C227.09677419354838,260 141.93548387096774,260 141.93548387096774,240"></path><path class="link" d="M581.9354838709677,280C581.9354838709677,260 610.3225806451613,260 610.3225806451613,240"></path><path class="link" d="M638.7096774193549,280C638.7096774193549,260 610.3225806451613,260 610.3225806451613,240"></path><path class="link" d="M113.54838709677419,320C113.54838709677419,300 113.54838709677419,300 113.54838709677419,280"></path><path class="link" d="M227.09677419354838,320C227.09677419354838,300 227.09677419354838,300 227.09677419354838,280"></path><path class="link" d="M638.7096774193549,320C638.7096774193549,300 638.7096774193549,300 638.7096774193549,280"></path><path class="link" d="M198.70967741935485,360C198.70967741935485,340 227.09677419354838,340 227.09677419354838,320"></path><path class="link" d="M255.48387096774192,360C255.48387096774192,340 227.09677419354838,340 227.09677419354838,320"></path><path class="link" d="M482.5806451612903,360C482.5806451612903,340 638.7096774193549,340 638.7096774193549,320"></path><path class="link" d="M738.0645161290322,360C738.0645161290322,340 638.7096774193549,340 638.7096774193549,320"></path><path class="link" d="M794.8387096774194,360C794.8387096774194,340 638.7096774193549,340 638.7096774193549,320"></path><path class="link" d="M198.70967741935485,400C198.70967741935485,380 198.70967741935485,380 198.70967741935485,360"></path><path class="link" d="M482.5806451612903,400C482.5806451612903,380 482.5806451612903,380 482.5806451612903,360"></path><path class="link" d="M738.0645161290322,400C738.0645161290322,380 738.0645161290322,380 738.0645161290322,360"></path><path class="link" d="M113.54838709677419,440C113.54838709677419,420 198.70967741935485,420 198.70967741935485,400"></path><path class="link" d="M170.32258064516128,440C170.32258064516128,420 198.70967741935485,420 198.70967741935485,400"></path><path class="link" d="M283.8709677419355,440C283.8709677419355,420 198.70967741935485,420 198.70967741935485,400"></path><path class="link" d="M397.4193548387097,440C397.4193548387097,420 482.5806451612903,420 482.5806451612903,400"></path><path class="link" d="M454.19354838709677,440C454.19354838709677,420 482.5806451612903,420 482.5806451612903,400"></path><path class="link" d="M567.741935483871,440C567.741935483871,420 482.5806451612903,420 482.5806451612903,400"></path><path class="link" d="M709.6774193548387,440C709.6774193548387,420 738.0645161290322,420 738.0645161290322,400"></path><path class="link" d="M766.4516129032259,440C766.4516129032259,420 738.0645161290322,420 738.0645161290322,400"></path><path class="link" d="M170.32258064516128,480C170.32258064516128,460 170.32258064516128,460 170.32258064516128,440"></path><path class="link" d="M283.8709677419355,480C283.8709677419355,460 283.8709677419355,460 283.8709677419355,440"></path><path class="link" d="M454.19354838709677,480C454.19354838709677,460 454.19354838709677,460 454.19354838709677,440"></path><path class="link" d="M567.741935483871,480C567.741935483871,460 567.741935483871,460 567.741935483871,440"></path><path class="link" d="M766.4516129032259,480C766.4516129032259,460 766.4516129032259,460 766.4516129032259,440"></path><path class="link" d="M255.48387096774192,520C255.48387096774192,500 283.8709677419355,500 283.8709677419355,480"></path><path class="link" d="M312.258064516129,520C312.258064516129,500 283.8709677419355,500 283.8709677419355,480"></path><path class="link" d="M539.3548387096774,520C539.3548387096774,500 567.741935483871,500 567.741935483871,480"></path><path class="link" d="M596.1290322580645,520C596.1290322580645,500 567.741935483871,500 567.741935483871,480"></path><path class="link" d="M709.6774193548387,520C709.6774193548387,500 766.4516129032259,500 766.4516129032259,480"></path><path class="link" d="M766.4516129032259,520C766.4516129032259,500 766.4516129032259,500 766.4516129032259,480"></path><path class="link" d="M823.2258064516129,520C823.2258064516129,500 766.4516129032259,500 766.4516129032259,480"></path><g class="node node--internal" transform="translate(432.9032258064516,0)"><circle class="predict" data-goal="false" data-goal-path="true" r="10"></circle><title>Step 1: predict S' -&gt; S</title><text dy=".35em" y="-20" style="text-anchor: middle;">0:S</text></g><g class="node node--internal" transform="translate(404.51612903225805,40)"><circle class="predict" data-goal="false" data-goal-path="true" r="10"></circle><title>Step 2: predict S -&gt; a B</title><text dy=".35em" y="-20" style="text-anchor: middle;">0:aB</text></g><g class="node node--leaf" transform="translate(461.2903225806452,40)"><circle class="predict" data-goal="false" data-goal-path="false" r="10"></circle><title>Step 49: predict S -&gt; b A</title><text dy=".35em" y="20" style="text-anchor: middle;">0:bA</text></g><g class="node node--internal" transform="translate(404.51612903225805,80)"><circle class="match" data-goal="false" data-goal-path="true" r="10"></circle><title>Step 3: match a</title><text dy=".35em" y="-20" style="text-anchor: middle;">1:B</text></g><g class="node node--internal" transform="translate(347.741935483871,120)"><circle class="predict" data-goal="false" data-goal-path="true" r="10"></circle><title>Step 4: predict B -&gt; a B B</title><text dy=".35em" y="-20" style="text-anchor: middle;">1:aBB</text></g><g class="node node--leaf" transform="translate(404.51612903225805,120)"><circle class="predict" data-goal="false" data-goal-path="false" r="10"></circle><title>Step 47: predict B -&gt; b</title><text dy=".35em" y="20" style="text-anchor: middle;">1:b</text></g><g class="node node--leaf" transform="translate(461.2903225806452,120)"><circle class="predict" data-goal="false" data-goal-path="false" r="10"></circle><title>Step 48: predict B -&gt; b S</title><text dy=".35em" y="20" style="text-anchor: middle;">1:bS</text></g><g class="node node--internal" transform="translate(347.741935483871,160)"><circle class="match" data-goal="false" data-goal-path="true" r="10"></circle><title>Step 5: match a</title><text dy=".35em" y="-20" style="text-anchor: middle;">2:BB</text></g><g class="node node--leaf" transform="translate(85.16129032258064,200)"><circle class="predict" data-goal="false" data-goal-path="false" r="10"></circle><title>Step 6: predict B -&gt; a B B</title><text dy=".35em" y="20" style="text-anchor: middle;">2:aBBB</text></g><g class="node node--internal" transform="translate(141.93548387096774,200)"><circle class="predict" data-goal="false" data-goal-path="true" r="10"></circle><title>Step 7: predict B -&gt; b</title><text dy=".35em" y="-20" style="text-anchor: middle;">2:bB</text></g><g class="node node--internal" transform="translate(610.3225806451613,200)"><circle class="predict" data-goal="false" data-goal-path="true" r="10"></circle><title>Step 24: predict B -&gt; b S</title><text dy=".35em" y="-20" style="text-anchor: middle;">2:bSB</text></g><g class="node node--internal" transform="translate(141.93548387096774,240)"><circle class="match" data-goal="false" data-goal-path="true" r="10"></circle><title>Step 8: match b</title><text dy=".35em" y="-20" style="text-anchor: middle;">3:B</text></g><g class="node node--internal" transform="translate(610.3225806451613,240)"><circle class="match" data-goal="false" data-goal-path="true" r="10"></circle><title>Step 25: match b</title><text dy=".35em" y="-20" style="text-anchor: middle;">3:SB</text></g><g class="node node--leaf" transform="translate(56.774193548387096,280)"><circle class="predict" data-goal="false" data-goal-path="false" r="10"></circle><title>Step 9: predict B -&gt; a B B</title><text dy=".35em" y="20" style="text-anchor: middle;">3:aBB</text></g><g class="node node--internal" transform="translate(113.54838709677419,280)"><circle class="predict" data-goal="false" data-goal-path="false" r="10"></circle><title>Step 10: predict B -&gt; b</title><text dy=".35em" y="-20" style="text-anchor: middle;">3:b</text></g><g class="node node--internal" transform="translate(227.09677419354838,280)"><circle class="predict" data-goal="false" data-goal-path="true" r="10"></circle><title>Step 12: predict B -&gt; b S</title><text dy=".35em" y="-20" style="text-anchor: middle;">3:bS</text></g><g class="node node--leaf" transform="translate(581.9354838709677,280)"><circle class="predict" data-goal="false" data-goal-path="false" r="10"></circle><title>Step 26: predict S -&gt; a B</title><text dy=".35em" y="20" style="text-anchor: middle;">3:aBB</text></g><g class="node node--internal" transform="translate(638.7096774193549,280)"><circle class="predict" data-goal="false" data-goal-path="true" r="10"></circle><title>Step 27: predict S -&gt; b A</title><text dy=".35em" y="-20" style="text-anchor: middle;">3:bAB</text></g><g class="node node--leaf" transform="translate(113.54838709677419,320)"><circle class="match" data-goal="false" data-goal-path="false" r="10"></circle><title>Step 11: match b</title><text dy=".35em" y="20" style="text-anchor: middle;">4</text></g><g class="node node--internal" transform="translate(227.09677419354838,320)"><circle class="match" data-goal="false" data-goal-path="true" r="10"></circle><title>Step 13: match b</title><text dy=".35em" y="-20" style="text-anchor: middle;">4:S</text></g><g class="node node--internal" transform="translate(638.7096774193549,320)"><circle class="match" data-goal="false" data-goal-path="true" r="10"></circle><title>Step 28: match b</title><text dy=".35em" y="-20" style="text-anchor: middle;">4:AB</text></g><g class="node node--internal" transform="translate(198.70967741935485,360)"><circle class="predict" data-goal="false" data-goal-path="true" r="10"></circle><title>Step 14: predict S -&gt; a B</title><text dy=".35em" y="-20" style="text-anchor: middle;">4:aB</text></g><g class="node node--leaf" transform="translate(255.48387096774192,360)"><circle class="predict" data-goal="false" data-goal-path="false" r="10"></circle><title>Step 23: predict S -&gt; b A</title><text dy=".35em" y="20" style="text-anchor: middle;">4:bA</text></g><g class="node node--internal" transform="translate(482.5806451612903,360)"><circle class="predict" data-goal="false" data-goal-path="true" r="10"></circle><title>Step 29: predict A -&gt; a</title><text dy=".35em" y="-20" style="text-anchor: middle;">4:aB</text></g><g class="node node--internal" transform="translate(738.0645161290322,360)"><circle class="predict" data-goal="false" data-goal-path="false" r="10"></circle><title>Step 38: predict A -&gt; a S</title><text dy=".35em" y="-20" style="text-anchor: middle;">4:aSB</text></g><g class="node node--leaf" transform="translate(794.8387096774194,360)"><circle class="predict" data-goal="false" data-goal-path="false" r="10"></circle><title>Step 46: predict A -&gt; b A A</title><text dy=".35em" y="20" style="text-anchor: middle;">4:bAAB</text></g><g class="node node--internal" transform="translate(198.70967741935485,400)"><circle class="match" data-goal="false" data-goal-path="true" r="10"></circle><title>Step 15: match a</title><text dy=".35em" y="-20" style="text-anchor: middle;">5:B</text></g><g class="node node--internal" transform="translate(482.5806451612903,400)"><circle class="match" data-goal="false" data-goal-path="true" r="10"></circle><title>Step 30: match a</title><text dy=".35em" y="-20" style="text-anchor: middle;">5:B</text></g><g class="node node--internal" transform="translate(738.0645161290322,400)"><circle class="match" data-goal="false" data-goal-path="false" r="10"></circle><title>Step 39: match a</title><text dy=".35em" y="-20" style="text-anchor: middle;">5:SB</text></g><g class="node node--leaf" transform="translate(113.54838709677419,440)"><circle class="predict" data-goal="false" data-goal-path="false" r="10"></circle><title>Step 16: predict B -&gt; a B B</title><text dy=".35em" y="20" style="text-anchor: middle;">5:aBB</text></g><g class="node node--internal" transform="translate(170.32258064516128,440)"><circle class="predict" data-goal="false" data-goal-path="true" r="10"></circle><title>Step 17: predict B -&gt; b</title><text dy=".35em" y="-20" style="text-anchor: middle;">5:b</text></g><g class="node node--internal" transform="translate(283.8709677419355,440)"><circle class="predict" data-goal="false" data-goal-path="false" r="10"></circle><title>Step 19: predict B -&gt; b S</title><text dy=".35em" y="-20" style="text-anchor: middle;">5:bS</text></g><g class="node node--leaf" transform="translate(397.4193548387097,440)"><circle class="predict" data-goal="false" data-goal-path="false" r="10"></circle><title>Step 31: predict B -&gt; a B B</title><text dy=".35em" y="20" style="text-anchor: middle;">5:aBB</text></g><g class="node node--internal" transform="translate(454.19354838709677,440)"><circle class="predict" data-goal="false" data-goal-path="true" r="10"></circle><title>Step 32: predict B -&gt; b</title><text dy=".35em" y="-20" style="text-anchor: middle;">5:b</text></g><g class="node node--internal" transform="translate(567.741935483871,440)"><circle class="predict" data-goal="false" data-goal-path="false" r="10"></circle><title>Step 34: predict B -&gt; b S</title><text dy=".35em" y="-20" style="text-anchor: middle;">5:bS</text></g><g class="node node--leaf" transform="translate(709.6774193548387,440)"><circle class="predict" data-goal="false" data-goal-path="false" r="10"></circle><title>Step 40: predict S -&gt; a B</title><text dy=".35em" y="20" style="text-anchor: middle;">5:aBB</text></g><g class="node node--internal" transform="translate(766.4516129032259,440)"><circle class="predict" data-goal="false" data-goal-path="false" r="10"></circle><title>Step 41: predict S -&gt; b A</title><text dy=".35em" y="-20" style="text-anchor: middle;">5:bAB</text></g><g class="node node--leaf" transform="translate(170.32258064516128,480)"><circle class="match" data-goal="true" data-goal-path="true" r="10"></circle><title>Step 18: match b</title><text dy=".35em" y="20" style="text-anchor: middle;">6</text></g><g class="node node--internal" transform="translate(283.8709677419355,480)"><circle class="match" data-goal="false" data-goal-path="false" r="10"></circle><title>Step 20: match b</title><text dy=".35em" y="-20" style="text-anchor: middle;">6:S</text></g><g class="node node--leaf" transform="translate(454.19354838709677,480)"><circle class="match" data-goal="true" data-goal-path="true" r="10"></circle><title>Step 33: match b</title><text dy=".35em" y="20" style="text-anchor: middle;">6</text></g><g class="node node--internal" transform="translate(567.741935483871,480)"><circle class="match" data-goal="false" data-goal-path="false" r="10"></circle><title>Step 35: match b</title><text dy=".35em" y="-20" style="text-anchor: middle;">6:S</text></g><g class="node node--internal" transform="translate(766.4516129032259,480)"><circle class="match" data-goal="false" data-goal-path="false" r="10"></circle><title>Step 42: match b</title><text dy=".35em" y="-20" style="text-anchor: middle;">6:AB</text></g><g class="node node--leaf" transform="translate(255.48387096774192,520)"><circle class="predict" data-goal="false" data-goal-path="false" r="10"></circle><title>Step 21: predict S -&gt; a B</title><text dy=".35em" y="20" style="text-anchor: middle;">6:aB</text></g><g class="node node--leaf" transform="translate(312.258064516129,520)"><circle class="predict" data-goal="false" data-goal-path="false" r="10"></circle><title>Step 22: predict S -&gt; b A</title><text dy=".35em" y="20" style="text-anchor: middle;">6:bA</text></g><g class="node node--leaf" transform="translate(539.3548387096774,520)"><circle class="predict" data-goal="false" data-goal-path="false" r="10"></circle><title>Step 36: predict S -&gt; a B</title><text dy=".35em" y="20" style="text-anchor: middle;">6:aB</text></g><g class="node node--leaf" transform="translate(596.1290322580645,520)"><circle class="predict" data-goal="false" data-goal-path="false" r="10"></circle><title>Step 37: predict S -&gt; b A</title><text dy=".35em" y="20" style="text-anchor: middle;">6:bA</text></g><g class="node node--leaf" transform="translate(709.6774193548387,520)"><circle class="predict" data-goal="false" data-goal-path="false" r="10"></circle><title>Step 43: predict A -&gt; a</title><text dy=".35em" y="20" style="text-anchor: middle;">6:aB</text></g><g class="node node--leaf" transform="translate(766.4516129032259,520)"><circle class="predict" data-goal="false" data-goal-path="false" r="10"></circle><title>Step 44: predict A -&gt; a S</title><text dy=".35em" y="20" style="text-anchor: middle;">6:aSB</text></g><g class="node node--leaf" transform="translate(823.2258064516129,520)"><circle class="predict" data-goal="false" data-goal-path="false" r="10"></circle><title>Step 45: predict A -&gt; b A A</title><text dy=".35em" y="20" style="text-anchor: middle;">6:bAAB</text></g></g></svg>
    